<svg width="180" height="60" viewBox="0 0 180 60" fill="none" xmlns="http://www.w3.org/2000/svg">
  <circle cx="40" cy="30" r="12" fill="#4F46E5"/>
  <path d="M63.68 36.12C67.04 36.12 69.32 34.72 70.12 32.44L67.08 31.84C66.68 32.92 65.56 33.64 63.72 33.64C61.32 33.64 59.76 32.2 59.56 29.84H70.32V29.08C70.32 24.76 67.64 21.88 63.44 21.88C59.08 21.88 56.28 25.04 56.28 29.04C56.28 33.2 59.04 36.12 63.68 36.12ZM59.64 27.76C59.92 25.88 61.32 24.36 63.52 24.36C65.64 24.36 67 25.8 67.08 27.76H59.64Z" fill="#374151"/>
  <path d="M73.6375 36H76.8375V30.44C76.8375 28.44 78.0775 26.96 79.9575 26.96C81.7175 26.96 82.5975 28.04 82.5975 30.04V36H85.7975V29.24C85.7975 26.08 84.0375 24.04 80.9775 24.04C79.0575 24.04 77.5975 24.84 76.8375 26.2V24.2H73.6375V36Z" fill="#374151"/>
  <path d="M94.6981 36.12C97.0581 36.12 98.8981 35.04 99.7381 33.32V36H102.938V20H99.7381V26.72C98.8981 25.04 97.0581 24 94.7381 24C91.0181 24 88.4181 26.88 88.4181 30.08C88.4181 33.28 91.0181 36.12 94.6981 36.12ZM95.4981 33.36C93.4581 33.36 91.8581 32.04 91.8581 30.08C91.8581 28.12 93.4581 26.76 95.4981 26.76C97.5381 26.76 99.1381 28.12 99.1381 30.08C99.1381 32.04 97.5381 33.36 95.4981 33.36Z" fill="#374151"/>
  <path d="M115.823 36H119.303L112.863 27.56L118.983 20H115.583L108.583 28.68V20H105.383V36H108.583V31.2L111.023 28.2L115.823 36Z" fill="#374151"/>
  <path d="M121.428 36H124.628V20H121.428V36Z" fill="#374151"/>
</svg>