<svg width="180" height="60" viewBox="0 0 180 60" fill="none" xmlns="http://www.w3.org/2000/svg">
  <path d="M39.5 20H34.5V40H39.5V20Z" fill="#4F46E5"/>
  <path d="M49.5 20H44.5V40H49.5V20Z" fill="#4F46E5"/>
  <path d="M34.5 30H49.5V25H34.5V30Z" fill="#4F46E5"/>
  <path d="M72.125 30.24C72.125 26.62 69.745 23.96 66.185 23.96C62.625 23.96 60.245 26.62 60.245 30.24C60.245 33.86 62.625 36.52 66.185 36.52C69.745 36.52 72.125 33.84 72.125 30.24ZM66.185 33.32C64.645 33.32 63.505 32.08 63.505 30.24C63.505 28.4 64.645 27.16 66.185 27.16C67.725 27.16 68.865 28.4 68.865 30.24C68.865 32.08 67.725 33.32 66.185 33.32Z" fill="#374151"/>
  <path d="M80.4078 36.2C83.1678 36.2 85.0478 34.8 85.0478 32.42C85.0478 29.58 82.0278 29.38 80.4678 29.02C79.7278 28.86 79.3878 28.6 79.3878 28.12C79.3878 27.58 79.9278 27.2 80.7878 27.2C81.7678 27.2 82.3278 27.66 82.4478 28.4H84.8478C84.6878 26.38 83.0478 24.96 80.8278 24.96C78.2878 24.96 76.6478 26.36 76.6478 28.32C76.6478 30.96 79.3678 31.24 80.9678 31.58C81.8078 31.76 82.2478 32.02 82.2478 32.58C82.2478 33.12 81.6678 33.56 80.7278 33.56C79.6278 33.56 78.9878 33.02 78.8878 32.14H76.4278C76.5678 34.44 78.0878 36.2 80.4078 36.2Z" fill="#374151"/>
  <path d="M93.5883 36.52C96.1483 36.52 98.1883 35 98.6683 32.66H95.8483C95.5683 33.42 94.8483 33.94 93.5883 33.94C92.0483 33.94 91.0083 32.98 90.8683 31.48H98.8083V30.48C98.8083 26.8 96.6683 24.28 93.4883 24.28C90.0283 24.28 87.8483 26.96 87.8483 30.44C87.8483 33.92 90.0283 36.52 93.5883 36.52ZM90.9083 29.42C91.1083 28.04 92.0883 26.86 93.5083 26.86C94.9283 26.86 95.8883 27.96 95.9883 29.42H90.9083Z" fill="#374151"/>
  <path d="M104.511 36.28H107.711V31.26C107.711 28.94 108.631 27.5 110.471 27.5C110.831 27.5 111.171 27.54 111.431 27.6V24.4C111.191 24.36 110.951 24.34 110.731 24.34C109.251 24.34 108.231 25.14 107.711 26.82V24.54H104.511V36.28Z" fill="#374151"/>
  <path d="M123.372 24.54H120.012L117.432 32.2H117.372L114.792 24.54H111.432L115.612 36.28H119.192L123.372 24.54Z" fill="#374151"/>
  <path d="M125.8 36.28H129V20H125.8V36.28Z" fill="#374151"/>
</svg>