<svg width="180" height="60" viewBox="0 0 180 60" fill="none" xmlns="http://www.w3.org/2000/svg">
  <path d="M38 22L32 28L38 34L44 28L38 22Z" fill="#4F46E5"/>
  <path d="M48 22L42 28L48 34L54 28L48 22Z" fill="#4F46E5"/>
  <path d="M65.52 36.2C68.28 36.2 70.16 34.8 70.16 32.42C70.16 29.58 67.14 29.38 65.58 29.02C64.84 28.86 64.5 28.6 64.5 28.12C64.5 27.58 65.04 27.2 65.9 27.2C66.88 27.2 67.44 27.66 67.56 28.4H69.96C69.8 26.38 68.16 24.96 65.94 24.96C63.4 24.96 61.76 26.36 61.76 28.32C61.76 30.96 64.48 31.24 66.08 31.58C66.92 31.76 67.36 32.02 67.36 32.58C67.36 33.12 66.78 33.56 65.84 33.56C64.74 33.56 64.1 33.02 64 32.14H61.54C61.68 34.44 63.2 36.2 65.52 36.2Z" fill="#374151"/>
  <path d="M78.2156 36.14C81.5956 36.14 83.8756 34.74 84.6756 32.46L81.6356 31.86C81.2356 32.94 80.1156 33.66 78.2756 33.66C75.8756 33.66 74.3156 32.22 74.1156 29.86H84.8756V29.1C84.8756 24.78 82.1956 21.9 77.9956 21.9C73.6356 21.9 70.8356 25.06 70.8356 29.06C70.8356 33.22 73.5956 36.14 78.2156 36.14ZM74.1956 27.78C74.4756 25.9 75.8756 24.38 78.0756 24.38C80.1956 24.38 81.5556 25.82 81.6356 27.78H74.1956Z" fill="#374151"/>
  <path d="M89.2213 36.02H92.4213V29.8C92.4213 28.08 93.6613 27.12 95.3413 27.12C95.9413 27.12 96.5013 27.24 96.8613 27.38V24.26C96.5613 24.14 96.1613 24.06 95.7613 24.06C94.2613 24.06 93.0613 24.86 92.4213 26.46V24.22H89.2213V36.02Z" fill="#374151"/>
  <path d="M99.3063 36.02H102.506V29.56C102.506 27.76 103.526 26.72 105.006 26.72C106.426 26.72 107.226 27.64 107.226 29.22V36.02H110.426V28.16C110.426 25.56 108.806 24.06 106.426 24.06C104.706 24.06 103.346 24.74 102.506 26.2V18.02H99.3063V36.02Z" fill="#374151"/>
  <path d="M119.648 36.14C123.028 36.14 125.308 34.74 126.108 32.46L123.068 31.86C122.668 32.94 121.548 33.66 119.708 33.66C117.308 33.66 115.748 32.22 115.548 29.86H126.308V29.1C126.308 24.78 123.628 21.9 119.428 21.9C115.068 21.9 112.268 25.06 112.268 29.06C112.268 33.22 115.028 36.14 119.648 36.14ZM115.628 27.78C115.908 25.9 117.308 24.38 119.508 24.38C121.628 24.38 122.988 25.82 123.068 27.78H115.628Z" fill="#374151"/>
  <path d="M128.833 36.02H132.033V24.22H128.833V36.02ZM130.453 22.7C131.553 22.7 132.453 21.84 132.453 20.78C132.453 19.72 131.553 18.86 130.453 18.86C129.353 18.86 128.453 19.72 128.453 20.78C128.453 21.84 129.353 22.7 130.453 22.7Z" fill="#374151"/>
</svg>