<svg width="180" height="60" viewBox="0 0 180 60" fill="none" xmlns="http://www.w3.org/2000/svg">
  <path d="M30 30C30 22.8203 35.8203 17 43 17V43C35.8203 43 30 37.1797 30 30Z" fill="#4F46E5"/>
  <path d="M43 17C50.1797 17 56 22.8203 56 30C56 37.1797 50.1797 43 43 43V17Z" fill="#4F46E5" fill-opacity="0.6"/>
  <path d="M68.52 36.2C71.28 36.2 73.16 34.8 73.16 32.42C73.16 29.58 70.14 29.38 68.58 29.02C67.84 28.86 67.5 28.6 67.5 28.12C67.5 27.58 68.04 27.2 68.9 27.2C69.88 27.2 70.44 27.66 70.56 28.4H72.96C72.8 26.38 71.16 24.96 68.94 24.96C66.4 24.96 64.76 26.36 64.76 28.32C64.76 30.96 67.48 31.24 69.08 31.58C69.92 31.76 70.36 32.02 70.36 32.58C70.36 33.12 69.78 33.56 68.84 33.56C67.74 33.56 67.1 33.02 67 32.14H64.54C64.68 34.44 66.2 36.2 68.52 36.2Z" fill="#374151"/>
  <path d="M75.6297 36H78.8297V30.44C78.8297 28.44 80.0697 26.96 81.9497 26.96C83.7097 26.96 84.5897 28.04 84.5897 30.04V36H87.7897V29.24C87.7897 26.08 86.0297 24.04 82.9697 24.04C81.0497 24.04 79.5897 24.84 78.8297 26.2V24.2H75.6297V36Z" fill="#374151"/>
  <path d="M98.2502 36.2C101.13 36.2 103.01 34.68 103.69 32.32L100.89 31.76C100.49 32.9 99.4902 33.52 98.3102 33.52C96.4702 33.52 95.2302 32.28 95.2302 30.12C95.2302 27.96 96.4702 26.68 98.3102 26.68C99.5102 26.68 100.45 27.34 100.83 28.48L103.63 27.92C102.97 25.56 101.07 24.04 98.2302 24.04C94.6902 24.04 92.0902 26.56 92.0902 30.12C92.0902 33.68 94.6902 36.2 98.2502 36.2Z" fill="#374151"/>
  <path d="M107.31 36H110.51V31.26C110.51 28.94 111.43 27.5 113.27 27.5C113.63 27.5 113.97 27.54 114.23 27.6V24.4C113.99 24.36 113.75 24.34 113.53 24.34C112.05 24.34 111.03 25.14 110.51 26.82V24.54H107.31V36Z" fill="#374151"/>
  <path d="M122.602 36.12C126.162 36.12 128.542 33.46 128.542 29.84C128.542 26.22 126.162 23.56 122.602 23.56C119.042 23.56 116.662 26.22 116.662 29.84C116.662 33.46 119.042 36.12 122.602 36.12ZM122.602 33.22C121.062 33.22 119.922 31.98 119.922 29.84C119.922 27.7 121.062 26.46 122.602 26.46C124.142 26.46 125.282 27.7 125.282 29.84C125.282 31.98 124.142 33.22 122.602 33.22Z" fill="#374151"/>
  <path d="M138.422 36.12C141.982 36.12 144.362 33.46 144.362 29.84C144.362 26.22 141.982 23.56 138.422 23.56C134.862 23.56 132.482 26.22 132.482 29.84C132.482 33.46 134.862 36.12 138.422 36.12ZM138.422 33.22C136.882 33.22 135.742 31.98 135.742 29.84C135.742 27.7 136.882 26.46 138.422 26.46C139.962 26.46 141.102 27.7 141.102 29.84C141.102 31.98 139.962 33.22 138.422 33.22Z" fill="#374151"/>
  <path d="M149.381 36h3.2v-4.76c0-2.24.72-3.16 2.26-3.16 1.38 0 1.9.94 1.9 2.8V36h3.2v-5.86c0-3.14-1.54-5.2-4.26-5.2-1.84 0-2.6.78-3.1 1.76V24.2h-3.2V36z" fill="#374151"/>
</svg>