<svg width="180" height="60" viewBox="0 0 180 60" fill="none" xmlns="http://www.w3.org/2000/svg">
  <path d="M36 25L30 31L36 37L42 31L36 25Z" fill="#4F46E5"/>
  <path d="M30 31H42" stroke="#4F46E5" stroke-width="2"/>
  <path d="M36 19V43" stroke="#4F46E5" stroke-width="2"/>
  <path d="M52 38L48 33L52 28L56 33L52 38Z" stroke="#4F46E5" stroke-width="2"/>
  <path d="M66.52 36.2C69.28 36.2 71.16 34.8 71.16 32.42C71.16 29.58 68.14 29.38 66.58 29.02C65.84 28.86 65.5 28.6 65.5 28.12C65.5 27.58 66.04 27.2 66.9 27.2C67.88 27.2 68.44 27.66 68.56 28.4H70.96C70.8 26.38 69.16 24.96 66.94 24.96C64.4 24.96 62.76 26.36 62.76 28.32C62.76 30.96 65.48 31.24 67.08 31.58C67.92 31.76 68.36 32.02 68.36 32.58C68.36 33.12 67.78 33.56 66.84 33.56C65.74 33.56 65.1 33.02 65 32.14H62.54C62.68 34.44 64.2 36.2 66.52 36.2Z" fill="#374151"/>
  <path d="M73.6297 36H76.8297V30.44C76.8297 28.44 78.0697 26.96 79.9497 26.96C81.7097 26.96 82.5897 28.04 82.5897 30.04V36H85.7897V29.24C85.7897 26.08 84.0297 24.04 80.9697 24.04C79.0497 24.04 77.5897 24.84 76.8297 26.2V24.2H73.6297V36Z" fill="#374151"/>
  <path d="M97.6903 36.12C101.05 36.12 103.33 34.72 104.13 32.44L101.09 31.84C100.69 32.92 99.5703 33.64 97.7303 33.64C95.3303 33.64 93.7703 32.2 93.5703 29.84H104.33V29.08C104.33 24.76 101.65 21.88 97.4503 21.88C93.0903 21.88 90.2903 25.04 90.2903 29.04C90.2903 33.2 93.0503 36.12 97.6903 36.12ZM93.6503 27.76C93.9303 25.88 95.3303 24.36 97.5303 24.36C99.6503 24.36 101.01 25.8 101.09 27.76H93.6503Z" fill="#374151"/>
  <path d="M106.748 36H109.948V30.44C109.948 28.44 111.188 26.96 113.068 26.96C114.828 26.96 115.708 28.04 115.708 30.04V36H118.908V29.24C118.908 26.08 117.148 24.04 114.088 24.04C112.168 24.04 110.708 24.84 109.948 26.2V24.2H106.748V36Z" fill="#374151"/>
  <path d="M129.029 36.14C132.589 36.14 134.969 33.48 134.969 29.86C134.969 26.24 132.589 23.58 129.029 23.58C125.469 23.58 123.089 26.24 123.089 29.86C123.089 33.48 125.469 36.14 129.029 36.14ZM129.029 33.24C127.489 33.24 126.349 32 126.349 29.86C126.349 27.72 127.489 26.48 129.029 26.48C130.569 26.48 131.709 27.72 131.709 29.86C131.709 32 130.569 33.24 129.029 33.24Z" fill="#374151"/>
  <path d="M140.448 36h3.2v-11.8h-3.2V36zm1.62-13.46c1.1 0 2-.86 2-1.92 0-1.06-.9-1.92-2-1.92s-2 .86-2 1.92c0 1.06.9 1.92 2 1.92zM154.747 36h3.6l-6.72-16h-3.76l-6.72 16h3.56l1.28-3.32h7.48l1.28 3.32zm-7.64-6.16l2.56-6.64 2.56 6.64h-5.12z" fill="#374151"/>
</svg>