<svg width="180" height="60" viewBox="0 0 180 60" fill="none" xmlns="http://www.w3.org/2000/svg">
  <path d="M28 20H36V28H44V36H36V28H28V20Z" fill="#4F46E5"/>
  <path d="M52 20H60V28H52V36H44V28H52V20Z" fill="#4F46E5"/>
  <path d="M68.68 36.12C72.04 36.12 74.32 34.72 75.12 32.44L72.08 31.84C71.68 32.92 70.56 33.64 68.72 33.64C66.32 33.64 64.76 32.2 64.56 29.84H75.32V29.08C75.32 24.76 72.64 21.88 68.44 21.88C64.08 21.88 61.28 25.04 61.28 29.04C61.28 33.2 64.04 36.12 68.68 36.12ZM64.64 27.76C64.92 25.88 66.32 24.36 68.52 24.36C70.64 24.36 72 25.8 72.08 27.76H64.64Z" fill="#374151"/>
  <path d="M84.0375 36.12C86.3975 36.12 88.2375 35.04 89.0775 33.32V36H92.2775V20H89.0775V26.72C88.2375 25.04 86.3975 24 84.0775 24C80.3575 24 77.7575 26.88 77.7575 30.08C77.7575 33.28 80.3575 36.12 84.0375 36.12ZM84.8375 33.36C82.7975 33.36 81.1975 32.04 81.1975 30.08C81.1975 28.12 82.7975 26.76 84.8375 26.76C86.8775 26.76 88.4775 28.12 88.4775 30.08C88.4775 32.04 86.8775 33.36 84.8375 33.36Z" fill="#374151"/>
  <path d="M102.643 36.12C105.143 36.12 107.203 35.2 108.703 33.4L107.003 31.56C106.003 32.72 104.523 33.36 102.843 33.36C100.603 33.36 98.9231 31.8 98.7231 29.52H108.963V28.72C108.963 24.64 106.483 21.88 102.483 21.88C98.4831 21.88 95.5631 24.84 95.5631 29.08C95.5631 33.32 98.4831 36.12 102.643 36.12ZM98.7631 27.52C98.9631 25.32 100.483 24.64 102.443 24.64C104.683 24.64 106.083 25.56 106.203 27.52H98.7631Z" fill="#374151"/>
  <path d="M118.212 36H121.692L115.252 27.56L121.372 20H117.972L110.972 28.68V20H107.772V36H110.972V31.2L113.412 28.2L118.212 36Z" fill="#374151"/>
  <path d="M129.177 36.12C132.537 36.12 134.817 34.72 135.617 32.44L132.577 31.84C132.177 32.92 131.057 33.64 129.217 33.64C126.817 33.64 125.257 32.2 125.057 29.84H135.817V29.08C135.817 24.76 133.137 21.88 128.937 21.88C124.577 21.88 121.777 25.04 121.777 29.04C121.777 33.2 124.537 36.12 129.177 36.12ZM125.137 27.76C125.417 25.88 126.817 24.36 129.017 24.36C131.137 24.36 132.497 25.8 132.577 27.76H125.137Z" fill="#374151"/>
  <path d="M138.382 36H141.582V30.44C141.582 28.44 142.822 26.96 144.702 26.96C146.462 26.96 147.342 28.04 147.342 30.04V36H150.542V29.24C150.542 26.08 148.782 24.04 145.722 24.04C143.802 24.04 142.342 24.84 141.582 26.2V24.2H138.382V36Z" fill="#374151"/>
</svg>